<?xml version="1.0" encoding="UTF-8"?>
<svg enable-background="new 0 0 288 288" version="1.1" viewBox="0 0 288 288" xml:space="preserve" xmlns="http://www.w3.org/2000/svg">
<style type="text/css">
	.st0{enable-background:new    ;}
	.st1{fill-rule:evenodd;clip-rule:evenodd;fill:#FF9900;}
</style>
<g class="st0">
	
		
			<path class="st1" d="m251.8 211c-7.2 0-13.5 4-16.8 9.8h-5.7c-1.7 0-3.4-0.7-4.6-1.9l-27.3-30.1c-1.2-1.2-2.9-1.9-4.6-1.9h-30.4v13h25.1c1.7 0 3.4 0.7 4.6 1.9l27.2 30c1.2 1.2 2.9 1.9 4.6 1.9h9c1.7 8.9 9.5 15.6 18.9 15.6 10.6 0 19.2-8.6 19.2-19.2s-8.6-19.1-19.2-19.1zm0 26.4c-4 0-7.2-3.2-7.2-7.2s3.2-7.2 7.2-7.2 7.2 3.2 7.2 7.2-3.3 7.2-7.2 7.2z"/>
		
	
</g>
<g class="st0">
	
		
			<path class="st1" d="m241.9 132.8c-9.9 0-18.2 6.7-20.6 15.8h-58.9v12h59.1c2.7 8.6 10.8 14.8 20.3 14.8 11.8 0 21.3-9.5 21.3-21.3 0.1-11.8-9.4-21.3-21.2-21.3zm0 29.3c-4.4 0-8-3.6-8-8s3.6-8 8-8 8 3.6 8 8-3.6 8-8 8z"/>
		
	
</g>
<g class="st0">
	
		
			<path class="st1" d="m260.6 60.5c-8.3 0-15.4 5.3-18.1 12.7h-14.3c-1.7 0-3.4 0.7-4.6 1.9l-31 31c-1.2 1.2-2.9 1.9-4.6 1.9h-25.6v13h30.9c1.7 0 3.4-0.7 4.6-1.9l31.1-31c1.2-1.2 2.9-1.9 4.6-1.9h9c2.7 7.4 9.7 12.7 18.1 12.7 10.6 0 19.2-8.6 19.2-19.2-0.1-10.6-8.7-19.2-19.3-19.2zm0 26.4c-4 0-7.2-3.2-7.2-7.2s3.2-7.2 7.2-7.2 7.2 3.2 7.2 7.2-3.2 7.2-7.2 7.2z"/>
		
	
</g>
<g class="st0">
	
		
			<path class="st1" d="m143.8 34.1h-25.8v-8.2c0-6.6-5.4-12-12-12h-40.8c-6.6 0-12 5.4-12 12v8.2h-25.8c-10.6 0-19.2 8.6-19.2 19.2v201.6c0 10.6 8.6 19.2 19.2 19.2h116.4c10.6 0 19.2-8.6 19.2-19.2v-201.6c0-10.6-8.6-19.2-19.2-19.2zm4.8 218.4c0 4-3.2 7.2-7.2 7.2h-111.6c-4 0-7.2-3.2-7.2-7.2v-196.8c0-4 3.2-7.2 7.2-7.2h111.6c4 0 7.2 3.2 7.2 7.2v196.8z"/>
		
	
</g>
<g class="st0">
	
		
			<path class="st1" d="m127.4 202.3h-83c-3.2 0-5.8 2.6-5.8 5.8v28.8c0 3.2 2.6 5.8 5.8 5.8h83c3.2 0 5.8-2.6 5.8-5.8v-28.8c0-3.2-2.6-5.8-5.8-5.8z"/>
		
	
</g>
<g class="st0">
	
		
			<path class="st1" d="m127.4 143.3h-83c-3.2 0-5.8 2.6-5.8 5.8v28.8c0 3.2 2.6 5.8 5.8 5.8h83c3.2 0 5.8-2.6 5.8-5.8v-28.9c0-3.1-2.6-5.7-5.8-5.7z"/>
		
	
</g>
<g class="st0">
	
		
			<path class="st1" d="m127.4 84.2h-40.3c-1.5 0-3 0.6-4.1 1.7l-32.3 32.6c-2.2 2.2-0.6 6 2.5 6h74.3c3.2 0 5.8-2.6 5.8-5.8v-28.7c-0.1-3.2-2.7-5.8-5.9-5.8z"/>
		
	
</g>
</svg>
