<?xml version="1.0" encoding="UTF-8" standalone="no"?>
<svg
   version="1.1"
   width="439"
   height="639"
   id="svg15"
   sodipodi:docname="Bildschirmfoto_15(1).svg"
   inkscape:version="1.4.2 (f4327f4, 2025-05-13)"
   xmlns:inkscape="http://www.inkscape.org/namespaces/inkscape"
   xmlns:sodipodi="http://sodipodi.sourceforge.net/DTD/sodipodi-0.dtd"
   xmlns="http://www.w3.org/2000/svg"
   xmlns:svg="http://www.w3.org/2000/svg">
  <defs
     id="defs15" />
  <sodipodi:namedview
     id="namedview15"
     pagecolor="#505050"
     bordercolor="#eeeeee"
     borderopacity="1"
     inkscape:showpageshadow="0"
     inkscape:pageopacity="0"
     inkscape:pagecheckerboard="0"
     inkscape:deskcolor="#505050"
     inkscape:zoom="1.2266112"
     inkscape:cx="244.9839"
     inkscape:cy="304.08983"
     inkscape:current-layer="svg15" />
  <path
     d="m 330,413 c 10.11437,3.37146 10.11437,3.37146 14.78516,5.67187 1.52596,0.74408 1.52596,0.74408 3.08276,1.50318 1.05421,0.51973 2.10842,1.03947 3.19458,1.57495 7.15559,3.48603 14.30369,6.93732 21.625,10.0625 6.04239,2.58175 11.89491,5.45673 17.75,8.4375 3.80901,1.87109 7.66389,3.57683 11.5625,5.25 6.27356,2.69501 12.36175,5.62626 18.44922,8.72266 6.11888,3.0628 12.33666,5.91397 18.55078,8.77734 -0.19336,0.92297 -0.38672,1.84594 -0.58594,2.79687 C 436.1848,476.8112 434.90962,487.80488 434,499 c -0.0889,1.0294 -0.0889,1.0294 -0.17969,2.07959 -2.77765,33.24091 -0.96726,67.30323 2.07544,100.44385 0.12861,1.40233 0.25711,2.80467 0.3855,4.20703 0.0627,0.68436 0.12547,1.36872 0.19011,2.07382 0.54898,6.12949 0.92659,12.26347 1.26497,18.40787 0.29744,4.27303 0.79065,8.53066 1.26367,12.78784 -35.97,0 -71.94,0 -109,0 0,-74.58 0,-149.16 0,-226 z"
     fill="#4dab50"
     id="path2" />
  <path
     d="m 0,78 c 11.163719,0.654066 22.220026,1.861188 33.3125,3.25 1.322669,0.165232 1.322669,0.165232 2.672058,0.333801 C 50.483504,83.412022 64.744794,85.754642 79,89 c 1.198022,0.265708 2.396045,0.531416 3.630371,0.805176 53.278569,11.831424 93.389719,34.301374 133.439939,71.483884 1.85636,1.71776 3.72481,3.42261 5.60938,5.10938 6.92487,6.21865 13.543,12.71804 20.13281,19.28906 0.89582,0.89123 1.79164,1.78245 2.7146,2.70068 4.46396,4.47437 8.7894,9.00421 12.90625,13.80005 2.40391,2.78003 4.92758,5.44426 7.44165,8.12427 4.5686,4.90664 8.89355,9.95155 13.08984,15.18359 2.41572,2.97212 4.94708,5.82278 7.52735,8.65235 1.75637,2.15678 3.09667,4.45815 4.50781,6.85156 -64.82342,0.98416 -140.23311,-7.31447 -193,-49 -0.522393,-0.40815 -1.044785,-0.8163 -1.583008,-1.23682 C 86.783184,183.9292 78.98761,176.18962 71.1875,168.4375 c -0.488142,-0.48278 -0.976284,-0.96557 -1.479218,-1.46298 -5.935503,-5.88604 -11.506892,-11.9458 -16.705596,-18.5004 -2.039222,-2.51926 -4.177905,-4.90706 -6.377686,-7.28662 -5.071351,-5.57408 -9.67517,-11.47425 -14.273926,-17.43799 -1.265702,-1.63896 -2.539381,-3.27132 -3.815918,-4.90185 C 22.525603,111.12387 16.776072,103.22649 11.074219,95.273437 9.1999963,92.659832 7.3124403,90.058277 5.3945312,87.476562 4.6662109,86.494297 3.9378906,85.512031 3.1875,84.5 2.5623047,83.664687 1.9371094,82.829375 1.2929687,81.96875 0,80 0,80 0,78 Z"
     fill="#4eab50"
     id="path3" />
  <path
     d="m 439,217 c -0.93634,7.05006 -1.97585,14.02717 -3.375,21 -6.18228,31.48147 -8.81749,63.67555 -8.75537,95.71094 0.005,3.2839 2e-5,6.56766 -0.006,9.85156 -0.007,16.54063 0.51006,32.78666 2.82422,49.1875 0.16862,1.21357 0.33725,2.42714 0.51098,3.67749 2.16913,14.9576 5.05175,29.92837 8.80147,44.57251 -3.36361,-0.5834 -6.26375,-1.41302 -9.37109,-2.82031 -0.81437,-0.3669 -1.62873,-0.7338 -2.46778,-1.11182 -0.85755,-0.39365 -1.7151,-0.78729 -2.59863,-1.19287 -1.33853,-0.60787 -1.33853,-0.60787 -2.7041,-1.22803 -6.22456,-2.84573 -12.3382,-5.86086 -18.43653,-8.96728 -4.42469,-2.17194 -8.9335,-4.1118 -13.46191,-6.05518 -5.57893,-2.41233 -10.98075,-5.11691 -16.39746,-7.87451 -3.809,-1.87109 -7.66385,-3.57695 -11.5625,-5.25 -6.26588,-2.6898 -12.36268,-5.60753 -18.42578,-8.72656 -3.07639,-1.52643 -6.16971,-2.96802 -9.29761,-4.38428 -0.98868,-0.44806 -1.97737,-0.89612 -2.99602,-1.35776 C 330.528,391.69104 329.7754,391.35068 329,391 c -0.0233,-20.06183 -0.041,-40.12366 -0.0518,-60.18551 -0.005,-9.31439 -0.0122,-18.62877 -0.0236,-27.94315 -0.01,-8.11539 -0.0164,-16.23078 -0.0186,-24.34618 -0.001,-4.29976 -0.004,-8.5995 -0.0116,-12.89926 -0.007,-4.04233 -0.009,-8.08463 -0.007,-12.12697 -2.7e-4,-1.48797 -0.002,-2.97594 -0.006,-4.46391 -0.005,-2.02277 -0.003,-4.04556 -10e-4,-6.06833 -9.3e-4,-1.13473 -0.002,-2.26945 -0.003,-3.43857 C 329,237 329,237 330,236 c 2.66485,-0.45648 5.32457,-0.86492 8,-1.25 7.56477,-1.1321 15.04827,-2.52327 22.53906,-4.06641 13.23999,-2.6862 26.52704,-5.05492 39.83594,-7.37109 3.35676,-0.58719 6.71338,-1.17522 10.06998,-1.76338 2.05795,-0.36029 4.11602,-0.71988 6.17425,-1.07858 0.93954,-0.1639 1.87907,-0.3278 2.84708,-0.49666 0.90885,-0.15843 1.8177,-0.31685 2.75409,-0.48008 3.83172,-0.68071 7.65598,-1.40069 11.47946,-2.1262 C 436,217 436,217 439,217 Z"
     fill="#f5ce46"
     id="path4" />
  <path
     d="m 310,272 c 0,59.73 0,119.46 0,181 -21.90183,11.52728 -21.90183,11.52728 -30.25,15.69141 -0.94907,0.47501 -1.89815,0.95003 -2.87598,1.43943 -1.97184,0.98626 -3.94417,1.97154 -5.91699,2.95583 -2.95593,1.47528 -5.90969,2.95484 -8.86328,4.43481 -9.88604,4.94434 -19.80617,9.79429 -29.81102,14.49366 -5.36896,2.52925 -10.64547,5.1841 -15.84523,8.04736 C 209.26119,504 209.26119,504 207,504 c 0.0856,-0.75394 0.17128,-1.50788 0.25952,-2.28467 2.18831,-19.06497 2.18831,-19.06497 3.44922,-38.20703 0.11558,-2.83371 0.3007,-5.56263 0.78686,-8.35937 0.48986,-3.05816 0.69139,-5.97733 0.78565,-9.07081 0.0374,-1.10859 0.0748,-2.21718 0.11328,-3.35937 0.0522,-1.71703 0.0522,-1.71703 0.10547,-3.46875 0.0698,-2.26572 0.14271,-4.53135 0.21875,-6.79688 0.0303,-0.9987 0.0606,-1.9974 0.0918,-3.02636 0.14935,-2.70136 0.39423,-5.33525 0.69653,-8.02051 0.63185,-6.11986 0.65495,-12.21155 0.66089,-18.35938 0.005,-1.82673 0.005,-1.82673 0.0101,-3.69036 0.005,-2.56496 0.007,-5.12993 0.007,-7.69489 0.002,-3.88602 0.0204,-7.77175 0.0393,-11.65771 0.003,-2.50651 0.005,-5.01302 0.006,-7.51953 0.007,-1.14318 0.0144,-2.28636 0.0218,-3.46418 C 214.22354,358.68566 214.07219,348.21423 209,339 c 9.81746,-8.93499 20.98456,-14.9982 32.52588,-21.40137 22.66066,-12.59461 45.09835,-26.71143 64.93506,-43.49316 C 309,272 309,272 310,272 Z"
     fill="#4eab51"
     id="path5" />
  <path
     d="m 310,475 c 0,54.12 0,108.24 0,164 -33.99,0 -67.98,0 -103,0 2,-23 2,-23 3,-34 0.10813,-3.24789 0.18581,-6.4752 0.20312,-9.72266 0.007,-0.89233 0.0136,-1.78466 0.0206,-2.70404 0.0169,-2.87863 0.0232,-5.75712 0.0263,-8.6358 0.002,-0.98318 0.005,-1.96636 0.007,-2.97934 0.0164,-18.4552 -1.1599,-36.6281 -3.2571,-54.95816 4.9254,-3.51157 10.0653,-6.03911 15.54297,-8.58203 10.54026,-4.96858 20.97074,-10.13671 31.38281,-15.36719 1.58901,-0.7974 3.17803,-1.59478 4.76706,-2.39212 6.55457,-3.29022 13.10703,-6.58463 19.65799,-9.88205 4.06429,-2.04548 8.13048,-4.08713 12.1979,-6.12638 1.537,-0.7716 3.07324,-1.54472 4.6087,-2.31939 2.12193,-1.07051 4.24622,-2.13616 6.37113,-3.20071 0.62993,-0.31935 1.25986,-0.63869 1.90888,-0.96772 C 307.77209,475 307.77209,475 310,475 Z"
     fill="#4eab51"
     id="path6" />
  <path
     d="m 197.8125,258.75 c 1.01279,-0.002 2.02558,-0.005 3.06906,-0.007 28.74076,-0.0244 57.43191,1.6429 86.11844,3.25708 -2.50885,2.60562 -4.99049,4.30637 -8.13672,6.11719 -1.03963,0.60022 -2.07926,1.20044 -3.15039,1.81884 -1.12213,0.63986 -2.24426,1.27972 -3.40039,1.93897 -0.57806,0.33103 -1.15613,0.66205 -1.75171,1.00311 C 192.58332,317.52961 192.58332,317.52961 154,325 c -0.76248,0.15179 -1.52496,0.30357 -2.31055,0.45996 -11.81414,2.32209 -23.65001,3.99953 -35.62695,5.22754 -1.13945,0.11924 -2.2789,0.23848 -3.45288,0.36133 -22.41005,2.1561 -44.90069,2.08915 -67.3891,2.01983 -3.7623,-0.0104 -7.52461,-0.0148 -11.28693,-0.0198 C 26.62238,333.03827 19.31119,333.02132 12,333 c 1.41116,-4.23348 4.51708,-5.90684 8,-8.4375 0.71696,-0.52788 1.43392,-1.05575 2.17261,-1.59961 C 24.44163,321.29905 26.71965,319.64825 29,318 c 0.69819,-0.50806 1.39638,-1.01611 2.11572,-1.53956 C 42.10749,308.48041 53.42575,301.1045 65,294 c 0.71124,-0.44086 1.42248,-0.88172 2.15527,-1.33594 23.96584,-14.80342 50.62012,-27.4861 78.71973,-31.41406 1.23569,-0.17342 1.23569,-0.17342 2.49634,-0.35034 16.36934,-2.0573 32.96778,-2.13207 49.44116,-2.14966 z"
     fill="#4eab51"
     id="path7" />
  <path
     d="m 330,84 c 6.09184,0.642523 12.1377,1.41597 18.1875,2.375 0.82879,0.13084 1.65757,0.26168 2.51148,0.396484 5.95466,0.961673 11.82846,2.161231 17.71508,3.478516 4.83631,1.011516 9.69953,1.807559 14.58033,2.572266 6.01054,0.95799 11.96227,2.163369 17.92724,3.370605 4.14893,0.830174 8.30894,1.591726 12.4729,2.342285 1.40041,0.254482 2.8008,0.50904 4.20117,0.763672 2.13452,0.387755 4.26936,0.772992 6.40552,1.151612 2.11164,0.37523 4.22129,0.7603 6.33081,1.14722 1.23468,0.2218 2.46936,0.4436 3.74146,0.67211 C 437,103 437,103 439,105 c -0.12427,2.07544 -0.12427,2.07544 -0.64453,4.61328 -0.1824,0.91846 -0.36481,1.83692 -0.55274,2.7832 -0.20302,0.96229 -0.40605,1.92458 -0.61523,2.91602 -0.19143,0.95068 -0.38285,1.90137 -0.58008,2.88086 -0.35989,1.78204 -0.7244,3.56316 -1.09497,5.34302 -0.16911,0.81299 -0.33822,1.62599 -0.51245,2.46362 -0.2724,1.19701 -0.2724,1.19701 -0.55029,2.41821 -0.95809,5.5004 -0.73961,11.13664 -0.76221,16.70679 -0.004,0.67997 -0.007,1.35994 -0.011,2.06052 -0.0301,14.20174 1.79294,27.83831 4.3235,41.81448 0.3357,1.9996 0.6706,3.99935 1,6 -7.8033,1.79489 -15.58651,3.3007 -23.5,4.5 -5.54575,0.841 -11.02341,1.77161 -16.5,3 -6.29068,1.41099 -12.60273,2.40894 -18.97266,3.375 -5.83499,0.89913 -11.56732,2.07186 -17.32812,3.36719 -5.43403,1.1132 -10.90708,1.93923 -16.39258,2.75586 -0.77537,0.11666 -1.55074,0.23332 -2.34961,0.35351 -0.69118,0.10136 -1.38236,0.20271 -2.09448,0.30713 C 339.78098,212.9952 339.78098,212.9952 337,214 c -2.333,0.0395 -4.66708,0.044 -7,0 1.285,-5.32807 2.56947,-10.6478 4.17187,-15.89062 C 342.11885,171.81797 345.3066,143.94638 339,117 c -0.14985,-0.66935 -0.29971,-1.33869 -0.4541,-2.02832 -2.0002,-8.87987 -4.59056,-17.466942 -7.59278,-26.057618 C 330,86 330,86 330,84 Z"
     fill="#e8333e"
     id="path8" />
  <path
     d="m 227,0 c 3.75075,3.5769198 6.91046,7.3508231 9.9375,11.5625 0.466,0.642759 0.93199,1.285518 1.41211,1.947754 C 239.90756,15.668007 241.4553,17.832743 243,20 c 0.55961,0.784556 1.11923,1.569111 1.6958,2.377441 C 269.74991,57.607368 294.36619,93.341183 300,137 c 0.17418,1.1583 0.34837,2.31661 0.52783,3.51001 0.69913,5.65013 0.63457,11.30843 0.64014,16.9939 0.005,1.79412 0.005,1.79412 0.0101,3.62449 0.005,2.52564 0.007,5.05128 0.007,7.57692 0.002,3.82035 0.0203,7.6404 0.0393,11.4607 0.027,12.08703 0.025,23.92322 -2.22457,35.83398 -42.42525,-33.20237 -58.03874,-94.72179 -64.28906,-145.367188 -0.53076,-4.291101 -1.13553,-8.564649 -1.78369,-12.839355 -1.66254,-11.023505 -2.90508,-22.08797 -4.11475,-33.168457 -0.0906,-0.819944 -0.18125,-1.639889 -0.27463,-2.48468 -0.26049,-2.366636 -0.51537,-4.733807 -0.76834,-7.101257 -0.078,-0.706548 -0.15594,-1.413095 -0.23627,-2.141053 C 227.0794,8.5648905 226.93023,4.3482099 227,0 Z"
     fill="#4eac51"
     id="path9" />
  <path
     d="m 434,11 c -0.0707,0.902988 -0.14147,1.805977 -0.21436,2.736328 -0.67845,9.267004 -0.93861,18.467753 -0.91064,27.763672 -0.004,1.285195 -0.008,2.570391 -0.0117,3.894531 -0.011,18.60304 -0.011,18.60304 4.13672,36.605469 0.34091,1.331416 0.67532,2.664533 1,4 -17.73326,-3.951265 -35.35552,-8.302894 -52.9729,-12.737061 -9.34153,-2.349605 -18.68672,-4.679343 -28.05054,-6.93872 -1.30112,-0.314217 -1.30112,-0.314217 -2.62852,-0.634781 -4.11193,-0.991959 -8.22498,-1.979025 -12.33949,-2.96019 -1.4547,-0.349763 -2.90937,-0.699611 -4.36402,-1.049561 -1.26481,-0.301801 -2.52962,-0.603603 -3.83276,-0.91455 C 331,60 331,60 330,59 c -0.0885,-2.520941 -0.11527,-5.014309 -0.0977,-7.535156 10e-4,-0.753251 0.003,-1.506501 0.004,-2.282578 0.006,-2.414962 0.0182,-4.829832 0.0309,-7.244766 0.005,-1.633462 0.01,-3.266926 0.0137,-4.900391 C 329.96222,33.024704 329.97949,29.012368 330,25 c 33.46685,-5.167383 33.46685,-5.167383 48.4397,-7.010986 5.47879,-0.681728 10.91111,-1.531248 16.354,-2.456055 5.80704,-0.965261 11.63084,-1.812327 17.4563,-2.657959 1.2143,-0.181758 2.42859,-0.363516 3.67969,-0.550781 C 422.0184,11.442085 427.84731,10.770422 434,11 Z"
     fill="#4eab51"
     id="path10" />
  <path
     d="m 187,523 c -3.83945,5.35322 -7.88139,10.24043 -12.5625,14.875 -0.60787,0.60223 -1.21575,1.20447 -1.84204,1.82495 -23.86587,23.24132 -50.15997,33.51338 -83.28296,33.61255 -0.694704,0.004 -1.389408,0.008 -2.105164,0.0114 C 77.30855,573.35108 67.7829,572.54095 58,571 81.09732,542.12835 111.75668,527.53655 147.88574,523.34424 160.83149,522.12508 174.01874,522.70407 187,523 Z"
     fill="#4eac51"
     id="path11" />
  <path
     d="m 191,531 c 0.66,0 1.32,0 2,0 -1.21474,7.2684 -2.76321,14.34264 -4.75,21.4375 -0.39252,1.41454 -0.39252,1.41454 -0.79297,2.85767 C 186.6461,558.19913 185.8249,561.09998 185,564 c -0.2533,0.8959 -0.5066,1.7918 -0.76758,2.71484 C 176.5415,593.74351 164.96243,618.43729 142,636 c -0.33,0 -0.66,0 -1,0 -2.08814,-29.17598 7.13581,-56.16059 26,-78 2.27268,-2.57011 4.56399,-5.12056 6.875,-7.65625 1.94995,-2.15068 3.85526,-4.332 5.75,-6.53125 2.85059,-3.28351 5.86252,-6.3498 8.99219,-9.36719 C 190.10854,533.0289 190.10854,533.0289 191,531 Z"
     fill="#4fac53"
     id="path12" />
  <path
     d="m 94,477 c 33.04196,2.2727 58.91923,6.73541 83,31 1.36058,1.6445 2.70381,3.30428 4,5 -31.60783,1.18741 -53.56726,-11.69747 -79.0625,-29.0625 -0.68514,-0.46511 -1.37027,-0.93022 -2.076172,-1.40942 C 95.123758,479.24752 95.123758,479.24752 94,477 Z"
     fill="#4fac53"
     id="path13" />
  <path
     d="m 18,326 c 0.66,0.33 1.32,0.66 2,1 -1.32,1.32 -2.64,2.64 -4,4 3.63,0.33 7.26,0.66 11,1 0,0.33 0,0.66 0,1 -4.95,0 -9.9,0 -15,0 1.22934,-3.68802 2.938594,-4.72357 6,-7 z"
     fill="#65bb71"
     id="path14" />
</svg>
